<svg width="32" height="32" viewBox="0 0 32 32" fill="none" xmlns="http://www.w3.org/2000/svg">
<path d="M15.9995 23.4606C17.0086 23.4606 17.9301 23.3507 18.7706 23.1609L16.8966 21.2868C16.6054 21.3092 16.3099 21.3273 15.9995 21.3273C10.2919 21.3273 8.08076 17.225 7.54531 15.994C7.94737 15.0968 8.4904 14.2696 9.1538 13.5439L7.66264 12.0528C6.02214 13.8309 5.40029 15.6218 5.38856 15.657C5.31498 15.876 5.31498 16.1131 5.38856 16.3322C5.41096 16.4026 7.85783 23.4606 15.9995 23.4606ZM15.9995 8.52748C14.0401 8.52748 12.4305 8.94988 11.0887 9.57387L7.15385 5.64006L5.64562 7.1483L24.8452 26.348L26.3534 24.8398L22.8132 21.2996C25.6014 19.2185 26.5966 16.377 26.6115 16.3322C26.6851 16.1131 26.6851 15.876 26.6115 15.657C26.5881 15.5855 24.1412 8.52748 15.9995 8.52748ZM21.3029 19.7892L18.8709 17.3572C19.0736 16.9412 19.1994 16.4836 19.1994 15.994C19.1994 14.2437 17.7499 12.7941 15.9995 12.7941C15.5099 12.7941 15.0523 12.92 14.6374 13.1237L12.7089 11.1952C13.7676 10.8319 14.8803 10.6512 15.9995 10.6608C21.7071 10.6608 23.9183 14.7631 24.4537 15.994C24.1316 16.7322 23.21 18.4921 21.3029 19.7892Z" fill="#767676"/>
</svg>
