<svg width="32" height="32" viewBox="0 0 32 32" fill="none" xmlns="http://www.w3.org/2000/svg">
<path d="M16 12.8172C15.1575 12.8228 14.3512 13.1599 13.7555 13.7556C13.1598 14.3513 12.8227 15.1576 12.8171 16C12.8171 17.7421 14.2579 19.1828 16 19.1828C17.7409 19.1828 19.1828 17.7421 19.1828 16C19.1828 14.259 17.7409 12.8172 16 12.8172Z" fill="#767676"/>
<path d="M16 8.57332C7.90183 8.57332 5.46804 15.5935 5.44576 15.6646L5.3333 15.9998L5.4447 16.3351C5.46804 16.4062 7.90183 23.4264 16 23.4264C24.0981 23.4264 26.5319 16.4062 26.5542 16.3351L26.6666 15.9998L26.5552 15.6646C26.5319 15.5935 24.0981 8.57332 16 8.57332ZM16 21.3045C10.3229 21.3045 8.12356 17.2242 7.59097 15.9998C8.12568 14.7713 10.3261 10.6952 16 10.6952C21.677 10.6952 23.8764 14.7755 24.409 15.9998C23.8742 17.2284 21.6739 21.3045 16 21.3045Z" fill="#767676"/>
</svg>
