<svg width="44" height="44" viewBox="0 0 44 44" fill="none" xmlns="http://www.w3.org/2000/svg">
<path fill-rule="evenodd" clip-rule="evenodd" d="M22 44C34.1506 44 44 34.1506 44 22C44 9.8494 34.1506 0 22 0C9.8494 0 0 9.8494 0 22C0 34.1506 9.8494 44 22 44ZM23.65 15.4C23.65 14.9624 23.4762 14.5427 23.1667 14.2333C22.8573 13.9238 22.4376 13.75 22 13.75C21.5624 13.75 21.1427 13.9238 20.8333 14.2333C20.5238 14.5427 20.35 14.9624 20.35 15.4V20.35H15.4C14.9624 20.35 14.5427 20.5238 14.2333 20.8333C13.9238 21.1427 13.75 21.5624 13.75 22C13.75 22.4376 13.9238 22.8573 14.2333 23.1667C14.5427 23.4762 14.9624 23.65 15.4 23.65H20.35V28.6C20.35 29.0376 20.5238 29.4573 20.8333 29.7667C21.1427 30.0762 21.5624 30.25 22 30.25C22.4376 30.25 22.8573 30.0762 23.1667 29.7667C23.4762 29.4573 23.65 29.0376 23.65 28.6V23.65H28.6C29.0376 23.65 29.4573 23.4762 29.7667 23.1667C30.0762 22.8573 30.25 22.4376 30.25 22C30.25 21.5624 30.0762 21.1427 29.7667 20.8333C29.4573 20.5238 29.0376 20.35 28.6 20.35H23.65V15.4Z" fill="#FA9E31"/>
</svg>
