<svg width="36" height="36" viewBox="0 0 36 36" fill="none" xmlns="http://www.w3.org/2000/svg">
<path fill-rule="evenodd" clip-rule="evenodd" d="M33 18C33 26.2845 26.2845 33 18 33C9.7155 33 3 26.2845 3 18C3 9.7155 9.7155 3 18 3C26.2845 3 33 9.7155 33 18ZM13.455 13.455C13.6659 13.2443 13.9519 13.126 14.25 13.126C14.5481 13.126 14.8341 13.2443 15.045 13.455L18 16.41L20.955 13.455C21.1683 13.2563 21.4503 13.1481 21.7418 13.1532C22.0332 13.1584 22.3113 13.2764 22.5174 13.4826C22.7236 13.6887 22.8416 13.9668 22.8468 14.2582C22.8519 14.5497 22.7437 14.8317 22.545 15.045L19.59 18L22.545 20.955C22.7437 21.1683 22.8519 21.4503 22.8468 21.7418C22.8416 22.0332 22.7236 22.3113 22.5174 22.5174C22.3113 22.7236 22.0332 22.8416 21.7418 22.8468C21.4503 22.8519 21.1683 22.7437 20.955 22.545L18 19.59L15.045 22.545C14.8317 22.7437 14.5497 22.8519 14.2582 22.8468C13.9668 22.8416 13.6887 22.7236 13.4826 22.5174C13.2764 22.3113 13.1584 22.0332 13.1532 21.7418C13.1481 21.4503 13.2563 21.1683 13.455 20.955L16.41 18L13.455 15.045C13.2443 14.8341 13.126 14.5481 13.126 14.25C13.126 13.9519 13.2443 13.6659 13.455 13.455Z" fill="#343434"/>
</svg>
